<svg width="462.3400390625px" height="138.51142578125px" xmlns="http://www.w3.org/2000/svg" viewBox="18.829980468749994 5.744287109374994 462.3400390625 138.51142578125" style="background-color: rgb(255, 255, 255);" preserveAspectRatio="xMidYMid"><defs><linearGradient id="editing-gradient-gradient" x1="0" x2="1" y1="0.5" y2="0.5" gradientUnits="objectBoundingBox"><stop offset="0" stop-color="#001cfe"></stop><stop offset="1" stop-color="#001cfe"></stop></linearGradient></defs><g><g transform="translate(87.51499557495117, 102.96281242370605)"><path d="M34.69-6.09L36.16-1.28L36.16-1.28Q33.25-0.38 30.02 0.19L30.02 0.19L30.02 0.19Q26.78 0.75 22.91 0.75L22.91 0.75L22.91 0.75Q13.34 0.75 8.47-4.97L8.47-4.97L8.47-4.97Q3.59-10.69 3.59-21.81L3.59-21.81L3.59-21.81Q3.59-33.63 8.47-39.63L8.47-39.63L8.47-39.63Q13.34-45.63 22.91-45.63L22.91-45.63L22.91-45.63Q26.53-45.63 29.42-45L29.42-45L29.42-45Q32.31-44.38 35-43.38L35-43.38L33.38-38.75L33.38-38.75Q32.09-39.22 30.84-39.59L30.84-39.59L30.84-39.59Q29.59-39.97 28.33-40.22L28.33-40.22L28.33-40.22Q27.06-40.47 25.72-40.59L25.72-40.59L25.72-40.59Q24.38-40.72 22.91-40.72L22.91-40.72L22.91-40.72Q19.44-40.72 16.94-39.48L16.94-39.48L16.94-39.48Q14.44-38.25 12.81-35.89L12.81-35.89L12.81-35.89Q11.19-33.53 10.41-30.14L10.41-30.14L10.41-30.14Q9.63-26.75 9.63-22.44L9.63-22.44L9.63-22.44Q9.63-18 10.41-14.59L10.41-14.59L10.41-14.59Q11.19-11.19 12.81-8.86L12.81-8.86L12.81-8.86Q14.44-6.53 16.94-5.34L16.94-5.34L16.94-5.34Q19.44-4.16 22.91-4.16L22.91-4.16L22.91-4.16Q26.09-4.16 28.97-4.69L28.97-4.69L28.97-4.69Q31.84-5.22 34.69-6.09L34.69-6.09ZM44.41 0L44.41-44.94L69.34-44.94L69.34-40.13L50.28-40.13L50.28-27.72L63.78-27.72L63.78-22.91L50.28-22.91L50.28 0L44.41 0ZM77.31-44.94L91.38-44.94L91.38-44.94Q94.47-44.94 97.16-44.27L97.16-44.27L97.16-44.27Q99.84-43.59 101.83-42.08L101.83-42.08L101.83-42.08Q103.81-40.56 104.95-38.13L104.95-38.13L104.95-38.13Q106.09-35.69 106.09-32.19L106.09-32.19L106.09-32.19Q106.09-28.28 104.78-25.81L104.78-25.81L104.78-25.81Q103.47-23.34 101.23-21.91L101.23-21.91L101.23-21.91Q99-20.47 96.05-19.94L96.05-19.94L96.05-19.94Q93.09-19.41 89.81-19.41L89.81-19.41L89.81-19.41Q88.03-19.41 86.33-19.53L86.33-19.53L86.33-19.53Q84.63-19.66 83.13-19.81L83.13-19.81L83.13 0L77.31 0L77.31-44.94ZM83.13-40.25L83.13-24.50L83.13-24.50Q84.63-24.31 86.27-24.20L86.27-24.20L86.27-24.20Q87.91-24.09 89.56-24.09L89.56-24.09L89.56-24.09Q91.94-24.09 93.92-24.39L93.92-24.39L93.92-24.39Q95.91-24.69 97.31-25.56L97.31-25.56L97.31-25.56Q98.72-26.44 99.50-28.03L99.50-28.03L99.50-28.03Q100.28-29.63 100.28-32.19L100.28-32.19L100.28-32.19Q100.28-34.53 99.63-36.08L99.63-36.08L99.63-36.08Q98.97-37.63 97.80-38.56L97.80-38.56L97.80-38.56Q96.63-39.50 94.98-39.88L94.98-39.88L94.98-39.88Q93.34-40.25 91.38-40.25L91.38-40.25L83.13-40.25ZM133-45.63L133-45.63L133-45.63Q137.78-45.63 141.45-44.11L141.45-44.11L141.45-44.11Q145.13-42.59 147.63-39.64L147.63-39.64L147.63-39.64Q150.13-36.69 151.42-32.38L151.42-32.38L151.42-32.38Q152.72-28.06 152.72-22.47L152.72-22.47L152.72-22.47Q152.72-13.41 149.47-7.81L149.47-7.81L149.47-7.81Q146.22-2.22 140.03-0.25L140.03-0.25L140.03-0.25Q141.56 0.88 142.67 1.72L142.67 1.72L142.67 1.72Q143.78 2.56 144.86 3.20L144.86 3.20L144.86 3.20Q145.94 3.84 147.17 4.36L147.17 4.36L147.17 4.36Q148.41 4.88 150.22 5.38L150.22 5.38L150.22 5.38Q149.84 6.69 149.36 7.88L149.36 7.88L149.36 7.88Q148.88 9.06 148.31 10.28L148.31 10.28L148.31 10.28Q147.13 9.97 146.09 9.59L146.09 9.59L146.09 9.59Q145.06 9.22 144.03 8.73L144.03 8.73L144.03 8.73Q143 8.25 141.92 7.56L141.92 7.56L141.92 7.56Q140.84 6.88 139.53 5.92L139.53 5.92L139.53 5.92Q138.22 4.97 136.63 3.70L136.63 3.70L136.63 3.70Q135.03 2.44 133 0.75L133 0.75L133 0.75Q128.34 0.75 124.67-0.73L124.67-0.73L124.67-0.73Q121-2.22 118.47-5.14L118.47-5.14L118.47-5.14Q115.94-8.06 114.61-12.41L114.61-12.41L114.61-12.41Q113.28-16.75 113.28-22.47L113.28-22.47L113.28-22.47Q113.28-28.16 114.61-32.48L114.61-32.48L114.61-32.48Q115.94-36.81 118.47-39.73L118.47-39.73L118.47-39.73Q121-42.66 124.67-44.14L124.67-44.14L124.67-44.14Q128.34-45.63 133-45.63ZM132.97-40.72L132.97-40.72L132.97-40.72Q129.41-40.72 126.81-39.42L126.81-39.42L126.81-39.42Q124.22-38.13 122.56-35.73L122.56-35.73L122.56-35.73Q120.91-33.34 120.11-29.97L120.11-29.97L120.11-29.97Q119.31-26.59 119.31-22.47L119.31-22.47L119.31-22.47Q119.31-18.31 120.11-14.92L120.11-14.92L120.11-14.92Q120.91-11.53 122.56-9.14L122.56-9.14L122.56-9.14Q124.22-6.75 126.81-5.45L126.81-5.45L126.81-5.45Q129.41-4.16 132.97-4.16L132.97-4.16L132.97-4.16Q136.47-4.16 139.06-5.42L139.06-5.42L139.06-5.42Q141.66-6.69 143.34-9.06L143.34-9.06L143.34-9.06Q145.03-11.44 145.86-14.83L145.86-14.83L145.86-14.83Q146.69-18.22 146.69-22.47L146.69-22.47L146.69-22.47Q146.69-26.69 145.86-30.08L145.86-30.08L145.86-30.08Q145.03-33.47 143.34-35.83L143.34-35.83L143.34-35.83Q141.66-38.19 139.06-39.45L139.06-39.45L139.06-39.45Q136.47-40.72 132.97-40.72ZM161.56 0L161.56-4.53L185.44-4.53L185.44 0L161.56 0ZM205.59 0L196.09 0L196.09-44.94L205.59-44.94L205.59-44.94Q209.44-44.94 212.73-44.55L212.73-44.55L212.73-44.55Q216.03-44.16 218.78-43.19L218.78-43.19L218.78-43.19Q221.53-42.22 223.61-40.61L223.61-40.61L223.61-40.61Q225.69-39 227.19-36.50L227.19-36.50L227.19-36.50Q228.66-34 229.41-30.56L229.41-30.56L229.41-30.56Q230.16-27.13 230.16-22.47L230.16-22.47L230.16-22.47Q230.16-17.81 229.41-14.38L229.41-14.38L229.41-14.38Q228.66-10.94 227.19-8.44L227.19-8.44L227.19-8.44Q225.69-5.94 223.61-4.33L223.61-4.33L223.61-4.33Q221.53-2.72 218.78-1.75L218.78-1.75L218.78-1.75Q216.03-0.78 212.73-0.39L212.73-0.39L212.73-0.39Q209.44 0 205.59 0L205.59 0ZM201.97-4.81L206.56-4.81L206.56-4.81Q211.34-4.81 214.67-5.77L214.67-5.77L214.67-5.77Q218-6.72 220.13-8.88L220.13-8.88L220.13-8.88Q222.22-11.03 223.17-14.36L223.17-14.36L223.17-14.36Q224.13-17.69 224.13-22.47L224.13-22.47L224.13-22.47Q224.13-27.25 223.17-30.58L223.17-30.58L223.17-30.58Q222.22-33.91 220.13-36.06L220.13-36.06L220.13-36.06Q218-38.22 214.67-39.17L214.67-39.17L214.67-39.17Q211.34-40.13 206.56-40.13L206.56-40.13L201.97-40.13L201.97-4.81ZM240.56-26.75L240.56-26.75L239.19-31.13L239.19-31.13Q244.44-33.22 250.19-33.22L250.19-33.22L250.19-33.22Q255.22-33.22 257.88-31.53L257.88-31.53L257.88-31.53Q260.91-29.59 260.91-24.94L260.91-24.94L260.91-12.16L260.91-12.16Q260.91-9.59 260.97-6.91L260.97-6.91L260.97-6.91Q261-5.31 261.28-3.59L261.28-3.59L261.28-3.59Q261.53-1.97 261.94-0.50L261.94-0.50L256.81 0.63L256.81 0.63Q256.09-1.47 255.91-4.06L255.91-4.06L255.28-4.13L255.28-4.13Q251.41 0.75 245.41 0.75L245.41 0.75L245.41 0.75Q241.03 0.75 238.38-1.67L238.38-1.67L238.38-1.67Q235.72-4.09 235.72-8.50L235.72-8.50L235.72-8.50Q235.72-11.78 237.17-13.88L237.17-13.88L237.17-13.88Q238.63-15.97 241.28-17.41L241.28-17.41L241.28-17.41Q245.47-19.69 253-19.69L253-19.69L253-19.69Q254-19.69 255.69-19.63L255.69-19.63L255.69-24.38L255.69-24.38Q255.69-26.63 254.31-27.63L254.31-27.63L254.31-27.63Q252.94-28.63 250-28.63L250-28.63L250-28.63Q245.72-28.63 240.56-26.75ZM255.69-9.13L255.69-9.13L255.69-15.69L255.69-15.69Q254.84-15.75 253.22-15.75L253.22-15.75L253.22-15.75Q250.47-15.75 248.16-15.28L248.16-15.28L248.16-15.28Q244.72-14.59 242.83-13.11L242.83-13.11L242.83-13.11Q240.94-11.63 240.94-8.84L240.94-8.84L240.94-8.84Q240.94-3.84 246.38-3.84L246.38-3.84L246.38-3.84Q249.19-3.84 251.63-5.34L251.63-5.34L251.63-5.34Q253.63-6.59 255.69-9.13ZM274.06-32.50L274.06-39.94L279.44-39.94L279.44-32.50L290.38-32.50L290.38-27.97L279.44-27.97L279.44-9.31L279.44-9.31Q279.44-7.44 279.55-6.45L279.55-6.45L279.55-6.45Q279.66-5.47 280.09-4.91L280.09-4.91L280.09-4.91Q280.91-3.78 283.38-3.78L283.38-3.78L283.38-3.78Q284.75-3.78 286.03-4.06L286.03-4.06L286.03-4.06Q287.34-4.34 288.44-4.69L288.44-4.69L288.44-4.69Q289.31-2.78 290.03-0.50L290.03-0.50L290.03-0.50Q286.34 0.75 282.59 0.75L282.59 0.75L282.59 0.75Q279.88 0.75 278.23 0.14L278.23 0.14L278.23 0.14Q276.59-0.47 275.66-1.84L275.66-1.84L275.66-1.84Q274.69-3.28 274.38-5.28L274.38-5.28L274.38-5.28Q274.06-7.28 274.06-10.81L274.06-10.81L274.06-27.97L269.38-27.97L269.38-32.50L274.06-32.50ZM300-26.75L300-26.75L298.63-31.13L298.63-31.13Q303.88-33.22 309.63-33.22L309.63-33.22L309.63-33.22Q314.66-33.22 317.31-31.53L317.31-31.53L317.31-31.53Q320.34-29.59 320.34-24.94L320.34-24.94L320.34-12.16L320.34-12.16Q320.34-9.59 320.41-6.91L320.41-6.91L320.41-6.91Q320.44-5.31 320.72-3.59L320.72-3.59L320.72-3.59Q320.97-1.97 321.38-0.50L321.38-0.50L316.25 0.63L316.25 0.63Q315.53-1.47 315.34-4.06L315.34-4.06L314.72-4.13L314.72-4.13Q310.84 0.75 304.84 0.75L304.84 0.75L304.84 0.75Q300.47 0.75 297.81-1.67L297.81-1.67L297.81-1.67Q295.16-4.09 295.16-8.50L295.16-8.50L295.16-8.50Q295.16-11.78 296.61-13.88L296.61-13.88L296.61-13.88Q298.06-15.97 300.72-17.41L300.72-17.41L300.72-17.41Q304.91-19.69 312.44-19.69L312.44-19.69L312.44-19.69Q313.44-19.69 315.13-19.63L315.13-19.63L315.13-24.38L315.13-24.38Q315.13-26.63 313.75-27.63L313.75-27.63L313.75-27.63Q312.38-28.63 309.44-28.63L309.44-28.63L309.44-28.63Q305.16-28.63 300-26.75ZM315.13-9.13L315.13-9.13L315.13-15.69L315.13-15.69Q314.28-15.75 312.66-15.75L312.66-15.75L312.66-15.75Q309.91-15.75 307.59-15.28L307.59-15.28L307.59-15.28Q304.16-14.59 302.27-13.11L302.27-13.11L302.27-13.11Q300.38-11.63 300.38-8.84L300.38-8.84L300.38-8.84Q300.38-3.84 305.81-3.84L305.81-3.84L305.81-3.84Q308.63-3.84 311.06-5.34L311.06-5.34L311.06-5.34Q313.06-6.59 315.13-9.13Z" fill="url(#editing-gradient-gradient)"></path></g></g><style>text {
  font-size: 64px;
  font-family: Arial Black;
  dominant-baseline: central;
  text-anchor: middle;
}</style></svg>
